<svg version="1.1" id="Layer_1" xmlns="http://www.w3.org/2000/svg" xmlns:xlink="http://www.w3.org/1999/xlink" x="0px" y="0px"
	 width="100%" viewBox="0 0 151 133" enable-background="new 0 0 151 133" xml:space="preserve">
<path fill="none" opacity="1.000000" stroke="#000000" stroke-linecap="round" stroke-linejoin="round" stroke-width="3.000000"
	d="
M145.500000,84.000000 
	C140.227554,80.119926 137.793121,73.882782 133.150558,69.345932 
	C128.152527,64.461708 123.031380,59.962635 116.993988,56.510509 
	C110.387726,52.733093 102.882996,53.282803 97.972122,57.467281 
	C93.176346,61.553692 91.812332,69.609459 95.050308,76.977890 
	C100.216049,88.733170 109.672043,96.829544 119.583801,104.390137 
	C120.267410,104.911591 121.196487,105.446625 122.004799,105.992905 
	C123.106010,106.737137 124.240868,107.431580 125.092751,107.975815 
	C123.410988,112.334923 121.373184,113.060104 117.980934,112.064980 
	C108.667725,109.332924 99.526657,106.008972 90.014999,103.931343 
	C88.138977,103.521561 86.555557,103.222252 85.000000,104.500000 
"/>
<path fill="none" opacity="1.000000" stroke="#000000" stroke-linecap="round" stroke-linejoin="round" stroke-width="3.000000"
	d="
M35.500000,53.500000 
	C26.729557,53.729771 18.949120,59.545494 15.412228,67.460777 
	C11.640345,75.901970 17.144400,80.942024 25.002869,81.456146 
	C37.799015,82.293320 49.581375,85.805641 60.021492,93.470726 
	C63.109753,95.738113 64.519844,100.483818 69.500000,100.000000 
	C70.772110,103.411568 73.644867,100.997932 75.533340,101.256554 
	C80.839989,101.983269 84.453484,105.144882 88.556236,107.916763 
	C93.619934,111.337891 98.899551,114.401108 103.593918,118.389450 
	C104.537460,119.191093 104.286057,119.773636 104.587738,120.690720 
	C102.166664,122.958389 99.174004,120.963470 97.609383,120.257561 
	C88.906746,116.331100 80.553284,111.632912 73.499062,105.000999 
	C72.628380,104.182449 71.948608,103.275696 72.000000,102.000000 
"/>
<path fill="none" opacity="1.000000" stroke="#000000" stroke-linecap="round" stroke-linejoin="round" stroke-width="3.000000"
	d="
M107.000000,53.500000 
	C105.767960,49.297413 101.506477,50.298740 98.946114,49.752640 
	C86.453911,47.088188 74.226608,48.948139 62.501659,54.003849 
	C58.489105,55.734032 54.628639,57.853420 49.997925,57.529705 
	C45.515392,57.216347 43.595905,55.387043 43.495144,51.000111 
	C43.262714,40.880764 47.784286,32.190899 52.093307,23.546513 
	C54.800499,18.115585 57.025585,12.230762 62.952522,8.915129 
	C67.358498,6.450350 69.839996,7.413504 70.521568,12.497108 
	C71.851868,22.419355 67.272385,30.315924 61.997505,37.998287 
	C57.418839,44.666679 51.117092,49.807785 46.000000,56.000000 
"/>
<path fill="none" opacity="1.000000" stroke="#000000" stroke-linecap="round" stroke-linejoin="round" stroke-width="3.000000"
	d="
M57.000000,12.500000 
	C55.911533,9.275659 54.192638,9.428450 51.993412,11.492982 
	C43.630653,19.343544 38.721558,29.153158 35.449234,39.984661 
	C34.191856,44.146614 34.644810,48.318253 34.500000,52.500000 
"/>
<path fill="none" opacity="1.000000" stroke="#000000" stroke-linecap="round" stroke-linejoin="round" stroke-width="3.000000"
	d="
M63.000000,98.000000 
	C62.333332,98.166664 61.571190,98.632843 61.014252,98.455299 
	C51.970409,95.572266 45.675335,99.584717 40.500305,106.498734 
	C41.636242,109.556000 43.559235,109.423241 46.011875,108.020767 
	C50.876495,105.239082 55.123402,101.406586 60.500000,99.500000 
"/>
</svg>